<?xml version="1.0" standalone="no"?>
<!DOCTYPE svg PUBLIC "-//W3C//DTD SVG 20010904//EN"
 "http://www.w3.org/TR/2001/REC-SVG-20010904/DTD/svg10.dtd">
<svg version="1.0" xmlns="http://www.w3.org/2000/svg"
 width="840.000000pt" height="859.000000pt" viewBox="0 0 840.000000 859.000000"
 preserveAspectRatio="xMidYMid meet">

<g transform="translate(0.000000,859.000000) scale(0.100000,-0.100000)"
fill="#000000" stroke="none">
<path d="M4220 6030 c-54 -200 -235 -670 -342 -885 -37 -74 -214 -402 -319
-590 -86 -156 -171 -332 -230 -475 l-38 -95 -324 -3 -324 -2 -7 57 c-4 32 -49
436 -101 898 -52 462 -97 867 -101 900 -8 69 -23 108 -24 60 0 -44 -55 -807
-91 -1260 -17 -214 -50 -657 -73 -982 -23 -326 -45 -595 -48 -599 -8 -7 -58
206 -145 608 l-68 317 -129 3 -129 3 -39 195 c-21 107 -62 323 -92 480 -41
220 -55 277 -60 250 -3 -19 -31 -222 -61 -450 -30 -228 -58 -429 -60 -447 l-6
-32 -96 -3 -97 -3 -33 -164 c-31 -156 -38 -180 -47 -170 -2 2 -19 78 -38 169
-33 159 -35 165 -59 165 -113 0 -818 -29 -813 -34 3 -3 179 -13 391 -21 l386
-15 39 -180 c21 -99 50 -234 64 -300 13 -66 27 -127 30 -135 6 -15 29 81 103
435 l38 180 98 5 99 5 38 275 c20 151 38 277 38 280 4 19 26 -74 65 -278 25
-130 47 -247 50 -259 5 -22 9 -23 130 -23 68 0 126 -4 129 -8 2 -4 29 -120 60
-257 30 -138 82 -367 114 -510 33 -143 77 -341 99 -440 21 -99 39 -171 40
-160 2 11 12 153 23 315 11 162 25 354 30 425 33 445 42 566 65 895 49 716 71
977 81 968 2 -3 24 -186 49 -409 25 -222 54 -471 64 -554 11 -82 22 -176 26
-207 l6 -58 342 -2 c336 -3 342 -3 339 -23 -34 -246 20 -473 162 -688 121
-183 335 -334 561 -399 70 -20 102 -23 250 -22 142 0 183 4 248 22 487 135
794 595 725 1087 -3 20 3 20 339 23 l343 2 5 23 c2 12 32 272 65 577 65 596
68 620 80 620 4 0 12 -80 19 -177 6 -98 18 -263 26 -368 25 -328 34 -453 80
-1110 47 -662 53 -742 64 -860 l7 -70 11 40 c6 22 27 114 48 205 20 91 50 220
66 287 16 67 63 278 105 470 42 191 81 351 87 355 7 4 64 8 128 8 88 0 118 3
122 13 3 8 29 134 58 280 29 147 54 265 56 263 3 -2 16 -80 29 -173 13 -92 31
-213 39 -268 8 -55 15 -103 15 -107 0 -4 44 -9 98 -10 l97 -3 27 -120 c14 -66
44 -207 65 -312 21 -106 41 -193 44 -193 7 0 23 72 92 415 l42 210 370 13
c204 7 384 16 400 20 17 5 -132 13 -345 20 -206 7 -400 15 -430 18 l-56 5 -23
-123 c-38 -203 -42 -221 -53 -210 -5 5 -24 81 -42 168 l-32 159 -96 3 -96 3
-6 37 c-4 20 -24 172 -46 337 -51 377 -79 578 -83 581 -2 2 -22 -101 -45 -229
-23 -128 -63 -343 -89 -479 l-47 -248 -127 0 -128 0 -11 -37 c-5 -21 -51 -225
-100 -453 -97 -446 -97 -446 -107 -436 -6 6 -12 84 -68 861 -64 900 -86 1204
-99 1356 -8 90 -22 276 -32 413 -10 136 -19 244 -21 240 -1 -5 -16 -124 -32
-264 -17 -140 -39 -327 -50 -415 -11 -88 -38 -326 -61 -530 -22 -203 -50 -446
-60 -540 -11 -93 -20 -176 -20 -182 0 -10 -71 -13 -323 -13 l-324 0 -28 73
c-52 132 -160 349 -320 641 -279 511 -421 828 -550 1221 l-53 160 -12 -45z
m157 -555 c66 -166 169 -392 222 -490 21 -38 103 -191 184 -340 153 -284 246
-483 298 -637 41 -121 51 -306 24 -439 -37 -183 -122 -339 -247 -453 -238
-218 -583 -233 -749 -34 -59 71 -89 128 -121 228 -19 64 -23 95 -22 205 1 164
32 287 129 525 104 257 162 433 192 585 26 134 27 154 27 445 1 282 -1 318
-27 485 -15 99 -29 198 -33 220 -3 26 8 4 31 -60 19 -55 61 -163 92 -240z
m-249 -538 c37 -40 54 -104 56 -212 1 -86 -2 -107 -23 -148 -28 -58 -68 -81
-123 -74 -55 7 -85 31 -99 78 -26 84 31 262 109 342 42 43 51 45 80 14z"/>
</g>
</svg>
